<svg width="104" height="104" viewBox="0 0 104 104" fill="none" xmlns="http://www.w3.org/2000/svg">
<path d="M93.1605 42.2727C95.5604 39.5728 99.7001 35.493 99.4801 33.8281C99.6501 32.2132 98.7752 30.6933 97.0253 27.6585L94.5554 23.3788C92.6905 20.1389 91.7556 18.519 90.1707 17.8741C88.5808 17.2241 86.7859 17.7341 83.1961 18.754L77.0964 20.4739C74.7966 21.0039 72.3967 20.7039 70.3018 19.624L68.6169 18.654C66.821 17.5024 65.4405 15.8065 64.6772 13.8143L63.0073 8.8296C61.9073 5.52979 61.3574 3.87989 60.0574 2.93495C58.7425 2 57.0026 2 53.5328 2H47.9632C44.4884 2 42.7535 2 41.4485 2.93994C40.1386 3.88989 39.5936 5.53979 38.4937 8.8396L36.8238 13.8193C36.0605 15.8115 34.68 17.5074 32.884 18.659L31.1991 19.634C29.1043 20.7089 26.6994 21.0089 24.4045 20.4789L18.3049 18.759C14.7151 17.7391 12.9202 17.2291 11.3303 17.8791C9.74538 18.524 8.81044 20.1439 6.94554 23.3788L4.47569 27.6635C2.72579 30.6983 1.85084 32.2182 2.02583 33.8331C2.19082 35.448 3.36075 36.753 5.70562 39.3578L10.8553 45.1175C12.1202 46.7174 13.0152 49.4972 13.0152 51.9921C13.0152 54.4919 12.1152 57.2718 10.8603 58.8667L5.70562 64.6263C3.36075 67.2312 2.19082 68.5311 2.02083 70.151C1.85084 71.7709 2.72579 73.2858 4.47569 76.3207L6.94554 80.6004C8.81044 83.8402 9.74538 85.4601 11.3303 86.1051C12.9202 86.7551 14.7151 86.2451 18.3049 85.2251L24.4045 83.5052C26.7004 82.9789 29.1084 83.2799 31.2041 84.3552L32.884 85.3251C34.6789 86.4751 36.0588 88.17 36.8238 90.1649L38.4937 95.1496C39.5936 98.4494 40.1936 100.164 41.1985 100.889C41.4985 101.104 42.6985 102.089 45.6383 101.994M67.002 78.0856C67.002 78.0856 72.0017 79.5055 74.5016 84.5052C74.5016 84.5052 79.9813 72.0059 87.0409 69.5061" stroke="#006144" stroke-width="3.5" stroke-linecap="round" stroke-linejoin="round"/>
<path d="M62.8023 39.2128C58.6026 35.793 55.3027 34.4731 50.503 34.4731C41.5035 34.5931 33.284 42.0227 33.284 51.6921C33.284 57.0168 34.9039 60.3916 37.9638 63.9314M102 76.9906C102 83.6207 99.3663 89.9791 94.6781 94.6673C89.99 99.3554 83.6315 101.989 77.0015 101.989C70.3715 101.989 64.013 99.3554 59.3248 94.6673C54.6367 89.9791 52.0029 83.6207 52.0029 76.9906C52.0029 70.3606 54.6367 64.0021 59.3248 59.314C64.013 54.6259 70.3715 51.9921 77.0015 51.9921C83.6315 51.9921 89.99 54.6259 94.6781 59.314C99.3663 64.0021 102 70.3606 102 76.9906Z" stroke="#006144" stroke-width="3.5" stroke-linecap="round" stroke-linejoin="round"/>
</svg>
