<svg width="100" height="100" viewBox="0 0 100 100" fill="none" xmlns="http://www.w3.org/2000/svg">
<path d="M50 68.4875C35.0094 68.55 22.4813 79.0156 19.2594 93.0375L19.2188 93.25C19.1844 93.4 19.1656 93.5719 19.1656 93.75C19.1656 95.0437 20.2156 96.0938 21.5094 96.0938C22.625 96.0938 23.5594 95.3125 23.7938 94.2656L23.7969 94.25C26.5313 82.1094 37.225 73.175 50.0031 73.175C62.7812 73.175 73.475 82.1094 76.175 94.0719L76.2094 94.25C76.4469 95.3125 77.3781 96.0938 78.4969 96.0938H78.5C78.6781 96.0938 78.85 96.0719 79.0156 96.0344L79 96.0375C80.0625 95.8 80.8437 94.8656 80.8437 93.7469C80.8437 93.5687 80.825 93.3969 80.7875 93.2312L80.7906 93.2469C77.525 79.0156 64.9937 68.55 50.0125 68.4844H50.0063L50 68.4875ZM28.6375 33.1313C36.7063 33.1313 43.25 26.5906 43.25 18.5188C43.25 10.4469 36.7094 3.90625 28.6375 3.90625C20.5688 3.90625 14.025 10.4469 14.025 18.5188C14.0344 26.5844 20.575 33.1219 28.6375 33.1313ZM28.6375 8.59375C34.1188 8.59375 38.5625 13.0375 38.5625 18.5188C38.5625 24 34.1188 28.4438 28.6375 28.4438C23.1563 28.4438 18.7125 24 18.7125 18.5188C18.7188 13.0406 23.1625 8.6 28.6375 8.59375ZM71.6437 33.1313C79.7125 33.1313 86.2562 26.5906 86.2562 18.5188C86.2562 10.4469 79.7156 3.90625 71.6437 3.90625C63.575 3.90625 57.0312 10.4469 57.0312 18.5188C57.0406 26.5844 63.5781 33.1219 71.6406 33.1313H71.6437ZM71.6437 8.59375C77.125 8.59375 81.5687 13.0375 81.5687 18.5188C81.5687 24 77.125 28.4438 71.6437 28.4438C66.1625 28.4438 61.7187 24 61.7187 18.5188C61.725 13.0406 66.1656 8.6 71.6437 8.59375ZM96.3187 62C93.575 49.8312 82.8562 40.8781 70.05 40.8781C68.7281 40.8781 67.4281 40.975 66.1562 41.1562L66.3 41.1375C66.1469 41.175 66.0125 41.225 65.8844 41.2844L65.8969 41.2781C63.55 34.625 57.3188 29.9437 49.9938 29.9437C42.7 29.9437 36.4906 34.5844 34.1563 41.0719L34.1188 41.1906C34.0656 41.1781 34.025 41.1469 33.9719 41.1375C32.85 40.9719 31.5563 40.875 30.2375 40.875C30.2313 40.875 30.2219 40.875 30.2156 40.875C17.4281 40.9313 6.74376 49.8563 3.99064 61.8156L3.95626 61.9969C3.92189 62.1469 3.90314 62.3188 3.90314 62.4969C3.90314 63.7906 4.95314 64.8406 6.24689 64.8406C7.36251 64.8406 8.29689 64.0594 8.53126 63.0125L8.53439 62.9969C10.8375 52.975 19.6594 45.6063 30.2125 45.5625H30.2188C31.2656 45.5625 32.2938 45.6375 33.2969 45.7812L33.1813 45.7687C33.1563 46.1406 33.0688 46.4938 33.0688 46.875C33.0875 56.2094 40.6594 63.7687 49.9969 63.7687C59.3344 63.7687 66.9062 56.2094 66.9219 46.875V46.8719C66.9219 46.4969 66.8344 46.1437 66.8094 45.7719C66.8594 45.7656 66.9062 45.7875 66.9562 45.775C67.875 45.6375 68.9375 45.5625 70.0187 45.5625C70.0312 45.5625 70.0406 45.5625 70.0531 45.5625C80.6125 45.6031 89.4344 52.9719 91.7062 62.8469L91.7344 62.9969C91.9719 64.0594 92.9062 64.8375 94.0219 64.8406C94.2 64.8406 94.3719 64.8187 94.5375 64.7812L94.5219 64.7844C95.5844 64.5469 96.3656 63.6125 96.3656 62.4937C96.3656 62.3156 96.3469 62.1437 96.3094 61.9781L96.3125 61.9937L96.3187 62ZM50 59.1125C50 59.1125 50 59.1125 49.9969 59.1125C43.2375 59.1125 37.7563 53.6344 37.7563 46.8719C37.7563 40.1094 43.2375 34.6312 49.9969 34.6312C56.7563 34.6312 62.2375 40.1125 62.2375 46.8719C62.2375 46.8719 62.2375 46.8719 62.2375 46.875C62.2281 53.6312 56.7563 59.1031 50 59.1125Z" fill="#006144"/>
</svg>
