<svg width="100" height="100" viewBox="0 0 100 100" fill="none" xmlns="http://www.w3.org/2000/svg">
<g clip-path="url(#clip0_1451_859)">
<path d="M84.7826 26.087H71.8478C70.6522 26.087 69.6739 27.0652 69.6739 28.2609C69.6739 29.4565 70.6522 30.4348 71.8478 30.4348H79.3478L68.2609 41.5218L64.5652 37.9348C62.8261 36.1957 60.2174 36.1957 58.4783 37.9348L40.2174 56.1957L34.0217 50C32.3913 48.3696 29.5652 48.3696 27.9348 50L17.2826 60.6522C16.413 61.5218 16.413 62.8261 17.2826 63.6957C17.7174 64.1305 18.2609 64.3479 18.8043 64.3479C19.3478 64.3479 19.8913 64.1305 20.3261 63.6957L30.9783 53.0435L38.6957 60.7609C39.5652 61.6305 40.8696 61.6305 41.7391 60.7609L61.5217 40.9783L66.7391 46.087C67.6087 46.9565 68.913 46.9565 69.7826 46.087L82.6087 33.2609V41.1957C82.6087 42.3913 83.587 43.3696 84.7826 43.3696C85.9783 43.3696 86.9565 42.3913 86.9565 41.1957V28.2609C86.9565 27.0652 85.9783 26.087 84.7826 26.087Z" fill="#006144"/>
<path d="M89.1304 4.34784H10.8696C4.8913 4.34784 0 9.23914 0 15.2174V84.7826C0 90.7609 4.8913 95.6522 10.8696 95.6522H89.1304C95.1087 95.6522 100 90.7609 100 84.7826V15.2174C100 9.23914 95.1087 4.34784 89.1304 4.34784ZM95.6522 84.7826C95.6522 88.3696 92.7174 91.3044 89.1304 91.3044H10.8696C7.28261 91.3044 4.34783 88.3696 4.34783 84.7826V15.2174C4.34783 11.6304 7.28261 8.69567 10.8696 8.69567H89.1304C92.7174 8.69567 95.6522 11.6304 95.6522 15.2174V84.7826Z" fill="#006144"/>
<path d="M12.0652 65.8696L9.89131 68.0435C9.02174 68.9131 9.02174 70.2174 9.89131 71.087C10.3261 71.5218 10.8696 71.7391 11.413 71.7391C11.9565 71.7391 12.5 71.5218 12.9348 71.087L15.1087 68.9131C15.9783 68.0435 15.9783 66.7391 15.1087 65.8696C14.2391 65 12.9348 65 12.0652 65.8696Z" fill="#006144"/>
</g>
<defs>
<clipPath id="clip0_1451_859">
<rect width="100" height="100" fill="white"/>
</clipPath>
</defs>
</svg>
