<svg width="100" height="100" viewBox="0 0 100 100" fill="none" xmlns="http://www.w3.org/2000/svg">
<g clip-path="url(#clip0_1451_870)">
<path d="M98.7759 88.3104H93.6009V41.7586C93.5994 40.3873 93.0539 39.0726 92.0843 38.1029C91.1146 37.1332 89.7998 36.5878 88.4285 36.5862H59.1182V14.1724C59.1166 12.8011 58.5712 11.4864 57.6015 10.5167C56.6318 9.54699 55.3171 9.00155 53.9458 9.00002H12.5664C11.1951 9.00155 9.88037 9.54699 8.91068 10.5167C7.941 11.4864 7.39556 12.8011 7.39403 14.1724V88.3104H2.22414C1.76687 88.3104 1.32833 88.492 1.00499 88.8154C0.68165 89.1387 0.5 89.5772 0.5 90.0345C0.5 90.4918 0.68165 90.9303 1.00499 91.2536C1.32833 91.577 1.76687 91.7586 2.22414 91.7586H98.7759C99.2331 91.7586 99.6717 91.577 99.995 91.2536C100.318 90.9303 100.5 90.4918 100.5 90.0345C100.5 89.5772 100.318 89.1387 99.995 88.8154C99.6717 88.492 99.2331 88.3104 98.7759 88.3104ZM88.4285 40.0345C88.8856 40.035 89.3239 40.2168 89.6471 40.54C89.9704 40.8633 90.1522 41.3015 90.1526 41.7586V88.3104H59.1182V40.0345H88.4285ZM10.8423 14.1724C10.8428 13.7153 11.0246 13.2771 11.3478 12.9538C11.6711 12.6306 12.1093 12.4488 12.5664 12.4483H53.9458C54.4029 12.4488 54.8411 12.6306 55.1644 12.9538C55.4876 13.2771 55.6694 13.7153 55.6699 14.1724V88.3104H10.8423V14.1724ZM21.1871 27.9655C21.1872 27.5083 21.3688 27.0697 21.6921 26.7464C22.0155 26.4231 22.454 26.2414 22.9113 26.2414H36.7044C37.1616 26.2414 37.6002 26.423 37.9235 26.7464C38.2469 27.0697 38.4285 27.5083 38.4285 27.9655C38.4285 28.4228 38.2469 28.8613 37.9235 29.1847C37.6002 29.508 37.1616 29.6897 36.7044 29.6897H22.9113C22.454 29.6896 22.0155 29.508 21.6921 29.1847C21.3688 28.8613 21.1872 28.4228 21.1871 27.9655ZM45.3251 55.5517C45.325 56.009 45.1434 56.4475 44.82 56.7709C44.4967 57.0942 44.0582 57.2759 43.6009 57.2759H29.8078C29.3505 57.2759 28.912 57.0942 28.5887 56.7709C28.2653 56.4475 28.0837 56.009 28.0837 55.5517C28.0837 55.0945 28.2653 54.6559 28.5887 54.3326C28.912 54.0093 29.3505 53.8276 29.8078 53.8276H43.6009C44.0582 53.8276 44.4967 54.0093 44.82 54.3326C45.1434 54.6559 45.325 55.0945 45.3251 55.5517ZM38.4285 72.7931C38.4285 73.2504 38.2468 73.6889 37.9235 74.0122C37.6002 74.3356 37.1616 74.5172 36.7044 74.5173H22.9113C22.454 74.5173 22.0155 74.3356 21.6921 74.0123C21.3688 73.6889 21.1871 73.2504 21.1871 72.7931C21.1871 72.3358 21.3688 71.8973 21.6921 71.574C22.0155 71.2506 22.454 71.069 22.9113 71.069H36.7044C37.1616 71.069 37.6002 71.2507 37.9235 71.574C38.2468 71.8973 38.4285 72.3359 38.4285 72.7931ZM79.8078 72.7931C79.8078 73.2504 79.6261 73.6889 79.3028 74.0122C78.9795 74.3356 78.5409 74.5172 78.0837 74.5173H71.1871C70.7299 74.5173 70.2913 74.3356 69.968 74.0123C69.6446 73.6889 69.463 73.2504 69.463 72.7931C69.463 72.3358 69.6446 71.8973 69.968 71.574C70.2913 71.2506 70.7299 71.069 71.1871 71.069H78.0837C78.5409 71.069 78.9795 71.2507 79.3028 71.574C79.6261 71.8973 79.8078 72.3359 79.8078 72.7931ZM69.463 55.5517C69.463 55.0945 69.6447 54.6559 69.968 54.3326C70.2913 54.0093 70.7299 53.8276 71.1871 53.8276H78.0837C78.5409 53.8276 78.9795 54.0093 79.3028 54.3326C79.6262 54.6559 79.8078 55.0945 79.8078 55.5517C79.8078 56.009 79.6262 56.4475 79.3028 56.7709C78.9795 57.0942 78.5409 57.2759 78.0837 57.2759H71.1871C70.7299 57.2759 70.2913 57.0942 69.968 56.7709C69.6447 56.4475 69.463 56.009 69.463 55.5517Z" fill="#006144"/>
</g>
<defs>
<clipPath id="clip0_1451_870">
<rect width="100" height="100" fill="white"/>
</clipPath>
</defs>
</svg>
